<?xml version="1.0" encoding="UTF-8" standalone="no"?>
<!-- Created with Inkscape (http://www.inkscape.org/) -->

<svg
   xmlns:dc="http://purl.org/dc/elements/1.1/"
   xmlns:cc="http://creativecommons.org/ns#"
   xmlns:rdf="http://www.w3.org/1999/02/22-rdf-syntax-ns#"
   xmlns:svg="http://www.w3.org/2000/svg"
   xmlns="http://www.w3.org/2000/svg"
   xmlns:sodipodi="http://sodipodi.sourceforge.net/DTD/sodipodi-0.dtd"
   xmlns:inkscape="http://www.inkscape.org/namespaces/inkscape"
   id="svg8"
   version="1.1"
   viewBox="0 0 258.08304 114.16046"
   height="431.47263"
   width="975.43201"
   inkscape:export-filename="C:\Users\Alyssa\Documents\GitRepos\polleth\img\polleth_oneline.png"
   inkscape:export-xdpi="300"
   inkscape:export-ydpi="300"
   inkscape:version="0.92.2 (5c3e80d, 2017-08-06)"
   sodipodi:docname="polleth_banner.svg">
  <title
     id="title904">polleth</title>
  <defs
     id="defs2" />
  <sodipodi:namedview
     inkscape:window-maximized="1"
     inkscape:window-y="-9"
     inkscape:window-x="-9"
     inkscape:window-height="1001"
     inkscape:window-width="1920"
     showgrid="false"
     inkscape:current-layer="layer1"
     inkscape:document-units="px"
     inkscape:cy="-13.428594"
     inkscape:cx="222.29587"
     inkscape:zoom="0.7"
     inkscape:pageshadow="2"
     inkscape:pageopacity="0.0"
     borderopacity="1.0"
     bordercolor="#666666"
     pagecolor="#ffffff"
     id="base"
     showguides="true"
     inkscape:guide-bbox="true"
     units="px"
     fit-margin-top="20"
     fit-margin-left="20"
     fit-margin-right="20"
     fit-margin-bottom="20"
     inkscape:pagecheckerboard="false"
     borderlayer="false">
    <sodipodi:guide
       position="143.9262,46.418417"
       orientation="0,1"
       id="guide850"
       inkscape:locked="false" />
    <sodipodi:guide
       position="51.055885,108.47915"
       orientation="0,1"
       id="guide872"
       inkscape:locked="false" />
  </sodipodi:namedview>
  <metadata
     id="metadata5">
    <rdf:RDF>
      <cc:Work
         rdf:about="">
        <dc:format>image/svg+xml</dc:format>
        <dc:type
           rdf:resource="http://purl.org/dc/dcmitype/StillImage" />
        <dc:title>polleth</dc:title>
      </cc:Work>
    </rdf:RDF>
  </metadata>
  <g
     inkscape:label="Layer 1"
     inkscape:groupmode="layer"
     id="layer1"
     transform="translate(-27.296995,-149.12699)">
    <path
       style="fill:#333333;fill-opacity:1;stroke-width:0.37797621"
       d="M 56.50586,185.80234 V 154.8083 h 10.394344 10.394344 v 30.99404 30.99405 H 66.900204 56.50586 Z"
       id="path854"
       inkscape:connector-curvature="0"
       inkscape:export-xdpi="300"
       inkscape:export-ydpi="300" />
    <path
       style="fill:#333333;fill-opacity:1;stroke-width:0.37797621"
       d="M 80.31836,185.80234 V 154.8083 h 10.394344 10.394336 v 30.99404 30.99405 H 90.712704 80.31836 Z"
       id="path856"
       inkscape:connector-curvature="0"
       inkscape:export-xdpi="300"
       inkscape:export-ydpi="300" />
    <path
       style="fill:#333333;fill-opacity:1;stroke-width:0.37797621"
       d="m 32.684501,206.30755 0.09584,-51.68825 10.394345,-0.10032 10.394345,-0.10032 -0.09716,51.78857 -0.09716,51.78856 H 42.981685 32.588662 Z"
       id="path870"
       inkscape:connector-curvature="0" />
    <path
       style="fill:#333333;fill-opacity:1;stroke-width:0.3903192"
       d="m 122.82895,217.60204 c -7.04167,-0.86869 -12.12948,-6.35112 -13.57209,-14.62477 -0.73529,-4.21706 -0.50871,-13.64633 0.40591,-16.89214 2.54354,-9.02645 9.74851,-13.90031 18.52394,-12.53069 3.53604,0.5519 6.2122,1.932 8.55996,4.41441 2.26857,2.39867 3.74239,5.10047 4.66882,8.55887 0.92068,3.43694 0.92068,14.70091 0,18.13785 -1.85039,6.90757 -6.85131,12.0564 -12.42703,12.79459 -3.31388,0.43873 -3.68412,0.44726 -6.15951,0.14188 z m 4.83845,-5.85426 c 2.51738,-0.69886 4.6351,-3.14093 5.71996,-6.59599 0.81168,-2.58507 0.91676,-3.68025 0.91676,-9.55514 0,-5.76659 -0.11317,-6.99319 -0.86426,-9.36767 -0.94005,-2.97186 -2.62082,-5.32243 -4.50099,-6.2947 -1.88211,-0.97328 -5.31457,-0.83944 -7.35631,0.28685 -1.36619,0.75362 -1.97962,1.46515 -2.99819,3.47767 -1.57032,3.10264 -2.03525,5.82062 -2.03525,11.89785 0,5.95475 0.46565,8.75712 1.95956,11.79305 1.26701,2.57476 2.49071,3.70749 4.6856,4.33723 1.8317,0.52555 2.64154,0.52932 4.47312,0.0208 z"
       id="path858"
       inkscape:connector-curvature="0"
       inkscape:export-xdpi="300"
       inkscape:export-ydpi="300" />
    <path
       style="fill:#333333;fill-opacity:1;stroke-width:0.3903192"
       d="M 150.89268,185.83866 V 154.8083 h 3.90319 3.9032 v 31.03036 31.03038 h -3.9032 -3.90319 z"
       id="path860"
       inkscape:connector-curvature="0"
       inkscape:export-xdpi="300"
       inkscape:export-ydpi="300" />
    <path
       style="fill:#333333;fill-opacity:1;stroke-width:0.3903192"
       d="M 169.23768,185.83866 V 154.8083 h 3.9032 3.90319 v 31.03036 31.03038 h -3.90319 -3.9032 z"
       id="path862"
       inkscape:connector-curvature="0"
       inkscape:export-xdpi="300"
       inkscape:export-ydpi="300" />
    <path
       style="fill:#333333;fill-opacity:1;stroke-width:0.3903192"
       d="m 200.42097,217.59322 c -7.05829,-0.70778 -12.68149,-6.51356 -14.02532,-14.48066 -0.72133,-4.27652 -0.29576,-15.09791 0.70308,-17.87814 1.81618,-5.05524 4.7401,-8.71806 8.34728,-10.45672 5.50876,-2.65524 13.15738,-1.44642 16.87336,2.66671 3.226,3.57082 4.53726,7.82524 4.53726,14.72136 v 4.797 h -11.56856 -11.56855 l 0.21212,3.41529 c 0.27457,4.42104 1.19338,6.85452 3.44823,9.1327 2.21615,2.23909 4.72353,2.93023 8.45216,2.32975 2.44209,-0.39329 5.82042,-1.87571 6.70582,-2.94257 0.8114,-0.97767 1.11185,-0.76081 2.35342,1.69873 l 1.16843,2.31464 -1.95546,1.43546 c -3.65941,2.68625 -8.2971,3.78658 -13.68327,3.24645 z m 8.88157,-28.72958 c -0.56877,-5.99118 -2.23784,-8.63054 -6.00069,-9.48915 -4.5444,-1.03694 -8.53692,3.23583 -9.33017,9.98512 l -0.25137,2.13869 h 7.91618 7.91618 z"
       id="path864"
       inkscape:connector-curvature="0"
       inkscape:export-xdpi="300"
       inkscape:export-ydpi="300" />
    <path
       style="fill:#333333;fill-opacity:1;stroke-width:0.3903192"
       d="m 234.81131,217.63503 c -3.23201,-0.40734 -5.6778,-2.33997 -6.90384,-5.45535 -0.60902,-1.54751 -0.70386,-3.55323 -0.81644,-17.26609 l -0.12738,-15.51518 h -2.90675 -2.90677 v -2.73224 -2.73223 h 2.92741 2.92739 v -5.26931 -5.26931 h 3.90319 3.90319 v 5.26931 5.26931 h 3.31771 3.31772 v 2.73223 2.73224 h -3.31772 -3.31771 v 14.45434 c 0,15.50538 0.12038,16.57179 1.98323,17.56876 0.54141,0.28975 1.73293,0.39259 3.10614,0.26806 l 2.22779,-0.20201 0.24121,2.00769 c 0.37258,3.10089 0.33415,3.26693 -0.82536,3.56621 -2.11027,0.54469 -5.00535,0.79131 -6.73301,0.57357 z"
       id="path866"
       inkscape:connector-curvature="0"
       inkscape:export-xdpi="300"
       inkscape:export-ydpi="300" />
    <path
       style="fill:#333333;fill-opacity:1;stroke-width:0.3903192"
       d="M 249.64343,185.83866 V 154.8083 h 3.90319 3.9032 l 0.0124,12.58779 c 0.0111,11.21033 0.0757,12.50237 0.59047,11.80716 2.74935,-3.7129 5.95902,-5.68109 9.43629,-5.78645 6.64355,-0.20129 10.90406,3.96297 12.19525,11.91968 0.21924,1.35096 0.39954,8.98839 0.40115,16.99317 l 0.003,14.53939 h -3.90319 -3.9032 v -14.75012 c 0,-11.935 -0.11319,-15.18463 -0.593,-17.02675 -1.1407,-4.37946 -3.02381,-5.8775 -7.06475,-5.6202 -2.02642,0.12903 -2.72282,0.36702 -3.93974,1.34636 -0.81302,0.65428 -1.87341,1.77013 -2.35644,2.47965 -0.87578,1.28644 -0.87821,1.33466 -0.87821,17.43053 v 16.14053 h -3.9032 -3.90319 z"
       id="path868"
       inkscape:connector-curvature="0"
       inkscape:export-xdpi="300"
       inkscape:export-ydpi="300" />
  </g>
</svg>
